<?xml version="1.0" standalone="no"?>
<!DOCTYPE svg PUBLIC "-//W3C//DTD SVG 20010904//EN"
 "http://www.w3.org/TR/2001/REC-SVG-20010904/DTD/svg10.dtd">
<svg version="1.0" xmlns="http://www.w3.org/2000/svg"
 width="688.000000pt" height="688.000000pt" viewBox="0 0 688.000000 688.000000"
 preserveAspectRatio="xMidYMid meet">
<metadata>
Created by potrace 1.14, written by Peter Selinger 2001-2017
</metadata>
<g transform="translate(0.000000,688.000000) scale(0.100000,-0.100000)"
fill="#000000" stroke="none">
<path d="M1967 5904 c-1 -2 -65 -6 -142 -10 -77 -3 -165 -8 -195 -10 -30 -1
-102 -5 -160 -8 -58 -3 -141 -8 -185 -11 -44 -2 -132 -7 -195 -10 -63 -4 -149
-8 -190 -10 -41 -3 -120 -7 -175 -10 -55 -3 -131 -7 -170 -9 -38 -2 -126 -7
-195 -11 -69 -4 -150 -8 -180 -10 -30 -2 -72 -4 -92 -4 l-38 -1 0 -2443 0
-2443 53 2 c108 5 284 15 342 19 91 7 321 18 402 19 40 1 73 3 73 6 0 3 28 5
63 6 61 1 277 11 407 20 36 2 112 6 170 9 58 3 134 7 170 9 147 9 336 19 355
19 11 1 22 4 25 8 4 6 5 853 1 896 -1 8 -17 10 -48 8 -56 -5 -219 -14 -348
-20 -49 -2 -133 -7 -185 -10 -120 -8 -233 -13 -380 -20 -63 -3 -115 -5 -115
-6 0 -1 -66 -5 -245 -13 l-135 -7 48 31 c26 16 52 30 57 30 6 0 10 4 10 10 0
5 11 12 25 16 14 3 25 9 25 13 0 4 30 25 66 46 36 22 78 48 92 57 15 10 37 23
49 29 l23 12 2 421 3 421 25 2 c34 2 251 13 380 19 58 3 121 7 140 9 19 2 40
4 47 4 9 1 11 105 10 418 l-2 416 -70 -2 c-38 -2 -97 -5 -130 -7 -33 -1 -109
-5 -170 -8 -60 -3 -138 -8 -173 -11 l-62 -5 2 582 3 581 60 3 c140 5 279 14
283 18 2 3 14 1 27 -4 13 -5 26 -6 29 -3 8 8 39 10 416 28 211 11 232 13 239
23 3 5 6 210 5 454 l0 443 -72 1 c-40 0 -74 -1 -75 -2z"/>
<path d="M3839 5905 c-2 -1 -49 -6 -104 -9 -55 -4 -107 -9 -115 -11 -8 -2 -35
-7 -60 -10 -43 -6 -133 -21 -182 -31 -13 -2 -50 -11 -83 -19 -33 -9 -69 -17
-79 -20 -32 -7 -149 -46 -171 -55 -11 -5 -44 -18 -72 -30 -92 -35 -307 -151
-333 -180 -3 -3 -33 -26 -67 -52 -57 -45 -140 -124 -189 -180 -42 -49 -109
-143 -106 -150 1 -5 -1 -8 -6 -8 -4 0 -22 -30 -41 -67 -18 -38 -37 -76 -42
-85 -9 -17 -46 -144 -55 -184 -66 -324 35 -640 266 -826 187 -150 459 -212
720 -163 305 58 610 267 722 495 27 54 23 87 -14 121 -18 16 -38 29 -44 29 -6
0 -17 7 -24 15 -7 8 -16 12 -20 10 -14 -8 -144 126 -165 170 -28 56 -28 193 0
250 56 118 136 198 260 262 73 38 156 62 238 70 105 10 120 8 113 -14 -3 -10
-8 -40 -11 -68 -4 -27 -8 -62 -11 -76 -2 -15 -6 -47 -9 -70 -6 -49 -14 -111
-20 -149 -2 -14 -7 -49 -10 -79 -4 -30 -8 -63 -11 -74 -4 -22 -20 -143 -29
-216 -3 -23 -8 -57 -11 -75 -3 -17 -7 -44 -9 -61 -1 -16 -5 -48 -9 -70 -3 -22
-8 -58 -11 -80 -3 -22 -7 -51 -9 -65 -3 -14 -7 -50 -10 -80 -4 -30 -9 -68 -12
-85 -3 -16 -7 -43 -9 -60 -2 -16 -6 -46 -9 -65 -9 -58 -14 -102 -21 -165 -4
-33 -8 -67 -11 -75 -2 -8 -6 -38 -9 -65 -4 -28 -8 -61 -10 -75 -11 -67 -14
-89 -20 -141 -3 -31 -8 -67 -11 -80 -4 -23 -9 -56 -19 -139 -10 -78 -21 -155
-29 -205 -5 -28 -13 -95 -20 -155 -6 -44 -16 -114 -21 -140 -5 -26 -17 -133
-19 -162 0 -10 -3 -18 -6 -18 -3 0 -5 -15 -6 -33 -1 -30 -9 -95 -18 -142 -2
-11 -7 -45 -10 -75 -4 -30 -9 -68 -12 -85 -3 -16 -7 -43 -9 -60 -3 -30 -22
-165 -31 -220 -2 -16 -6 -46 -8 -65 -6 -49 -16 -122 -21 -140 -2 -8 -7 -44
-10 -80 -4 -36 -8 -72 -10 -80 -6 -32 -15 -97 -20 -135 -5 -45 -14 -108 -21
-145 -2 -14 -7 -45 -9 -70 -3 -25 -8 -53 -11 -63 -9 -29 20 -30 72 -2 98 52
311 138 373 150 9 2 36 9 61 15 25 7 59 14 75 16 17 2 59 8 95 13 98 13 373 6
470 -13 14 -3 43 -8 65 -11 23 -3 52 -8 65 -11 14 -3 39 -7 55 -10 17 -3 41
-7 55 -10 14 -3 50 -9 80 -14 30 -6 64 -12 75 -14 11 -2 43 -7 70 -10 28 -4
64 -9 80 -12 108 -16 395 -10 510 11 17 3 45 8 64 11 76 11 224 51 306 83 62
25 214 105 239 126 16 14 33 25 37 25 14 0 163 153 195 200 115 169 174 373
169 587 -4 201 -62 358 -170 469 -57 57 -89 74 -147 77 -9 1 -56 -28 -105 -64
-138 -103 -248 -167 -403 -237 -82 -37 -281 -108 -330 -117 -12 -2 -29 -6 -38
-9 -22 -7 -92 -21 -157 -31 -52 -9 -74 -11 -165 -20 -41 -3 -78 -9 -82 -11 -4
-3 -8 -1 -8 5 0 7 -8 7 -22 2 -24 -9 -51 -4 -44 7 2 4 7 41 11 82 3 41 8 82
10 90 2 8 7 40 10 70 3 30 8 66 10 80 2 14 6 50 10 80 8 75 16 143 34 285 6
44 13 100 16 125 3 25 7 62 10 83 3 20 7 55 10 77 3 22 7 58 10 80 3 22 7 57
10 78 9 74 14 119 25 198 6 44 13 100 15 124 4 38 9 79 30 240 12 92 16 128
21 160 9 58 12 82 19 150 4 36 9 74 11 85 3 11 6 40 9 65 2 25 7 61 10 80 4
19 8 51 10 70 5 38 12 95 20 149 3 18 8 57 10 86 3 28 8 63 10 76 3 13 10 62
15 109 6 47 13 99 16 115 5 37 13 96 20 155 3 25 7 56 9 70 3 14 7 50 11 80 3
30 8 63 10 74 2 10 6 44 10 75 3 31 10 77 14 104 4 31 3 50 -4 56 -10 8 -61
22 -83 23 -5 0 -19 5 -33 10 -32 12 -239 57 -360 78 -30 6 -66 12 -80 15 -26
5 -95 16 -120 20 -70 9 -130 17 -155 22 -16 2 -46 6 -65 8 -66 7 -165 16 -225
22 -70 6 -611 14 -616 8z"/>
</g>
</svg>
