<svg width="43" height="32" viewBox="0 0 43 32" fill="none" xmlns="http://www.w3.org/2000/svg">
    <path d="M42.5926 24.5208C42.3527 27.2013 40.7582 29.8741 35.6159 30.4336C31.0305 30.9318 28.2805 28.0597 22.6574 31.1311C22.6574 31.1311 22.4593 31.1541 22.5385 30.946C23.859 21.6071 25.5691 9.09167 26.1699 4.66693C23.0172 4.57714 21.1432 7.39557 22.7795 8.92305C23.6169 9.90194 24.8912 9.44644 23.5344 11.2608C22.5792 12.5912 18.9523 14.895 15.563 12.9624C12.8515 11.3955 12.6116 7.77005 14.2083 5.2604C19.311 -2.66932 34.7411 1.83207 34.7411 1.83207C34.7648 1.82717 34.7893 1.82857 34.8123 1.83613C34.8353 1.8437 34.8558 1.85715 34.8719 1.87514C34.888 1.89313 34.899 1.91502 34.9038 1.9386C34.9087 1.96218 34.9072 1.98662 34.8995 2.00945L33.4239 13.1934L32.1485 23.5167C35.1765 23.4918 38.1039 22.4322 40.4402 20.5154C41.1961 20.1946 42.8303 21.8009 42.5926 24.5208Z" fill="#E277EA"/>
    <path d="M0.309723 31.7916L13.2143 31.0911V25.3956L4.08102 25.8917L6.55433 24.3322V19.097L10.3643 18.8907V13.6555L6.55433 13.8618V6.616L13.2143 6.25447V0.55957L0.309723 1.26007V31.7916Z" fill="#1967DC"/>
</svg>
