<svg width="24" height="24" viewBox="0 0 24 24" fill="none" xmlns="http://www.w3.org/2000/svg">
<path d="M8.6354 14.7234L8.57191 14.6599L14.6594 8.5717L14.7232 8.63555C15.2839 9.19547 16.1917 9.19583 16.7524 8.63519C17.313 8.0749 17.313 7.16632 16.7524 6.60568L12.5664 2.42003C12.0057 1.86011 11.0979 1.85975 10.5372 2.42039C9.97657 2.98068 9.97657 3.88926 10.5372 4.4499L10.6007 4.51339L4.51289 10.6009L4.44976 10.5377C3.88912 9.97708 2.98125 9.97744 2.42061 10.5374C1.85996 11.098 1.85996 12.0066 2.42061 12.5669L6.60625 16.7525C7.16653 17.3132 8.07476 17.3132 8.6354 16.7529C9.19605 16.1922 9.19605 15.2836 8.6354 14.7234Z" stroke="#5C6A79" stroke-width="1.5" stroke-linecap="round" stroke-linejoin="round"/>
<path d="M12 21L2 21" stroke="#5C6A79" stroke-width="1.5" stroke-linecap="round"/>
<path d="M11.7817 11.8186L21 21" stroke="#5C6A79" stroke-width="1.5" stroke-linecap="round" stroke-linejoin="round"/>
</svg>
