<svg height='100px' width='100px'  fill="#1A1A1A" xmlns:dc="http://purl.org/dc/elements/1.1/" xmlns:cc="http://creativecommons.org/ns#" xmlns:rdf="http://www.w3.org/1999/02/22-rdf-syntax-ns#" xmlns:svg="http://www.w3.org/2000/svg" xmlns="http://www.w3.org/2000/svg" xmlns:sodipodi="http://sodipodi.sourceforge.net/DTD/sodipodi-0.dtd" xmlns:inkscape="http://www.inkscape.org/namespaces/inkscape" viewBox="0 0 16.933333 16.933333" version="1.1" x="0px" y="0px"><g><path style="color:#000000;font-style:normal;font-variant:normal;font-weight:normal;font-stretch:normal;font-size:medium;line-height:normal;font-family:sans-serif;font-variant-ligatures:normal;font-variant-position:normal;font-variant-caps:normal;font-variant-numeric:normal;font-variant-alternates:normal;font-feature-settings:normal;text-indent:0;text-align:start;text-decoration:none;text-decoration-line:none;text-decoration-style:solid;text-decoration-color:#000000;letter-spacing:normal;word-spacing:normal;text-transform:none;writing-mode:lr-tb;direction:ltr;text-orientation:mixed;dominant-baseline:auto;baseline-shift:baseline;text-anchor:start;white-space:normal;shape-padding:0;clip-rule:nonzero;display:inline;overflow:visible;visibility:visible;opacity:1;isolation:auto;mix-blend-mode:normal;color-interpolation:sRGB;color-interpolation-filters:linearRGB;solid-color:#000000;solid-opacity:1;vector-effect:none;fill:#1A1A1A;fill-opacity:1;fill-rule:nonzero;stroke:none;stroke-width:0.52916664;stroke-linecap:round;stroke-linejoin:round;stroke-miterlimit:4;stroke-dasharray:none;stroke-dashoffset:0;stroke-opacity:1;color-rendering:auto;image-rendering:auto;shape-rendering:auto;text-rendering:auto;enable-background:accumulate" d="m 8.4666664,1.058592 c -1.4559873,-2e-7 -2.8969938,1.0644518 -3.9863199,2.5993244 -1.0893263,1.5348728 -1.8339966,3.5639719 -1.8339966,5.6017252 0,4.0636764 2.764165,6.6150994 5.8203165,6.6150994 3.0561506,0 5.8203176,-2.551422 5.8203166,-6.6150994 0,-2.0377531 -0.744671,-4.0668524 -1.833997,-5.6017252 C 11.36366,2.1230436 9.9226539,1.0585918 8.4666664,1.058592 Z m 0,0.5291666 c 1.1898463,0 2.5274816,0.9290647 3.5548216,2.3765991 1.027341,1.4475343 1.736329,3.3876487 1.736328,5.2952839 10e-7,3.8270994 -2.526468,6.0859324 -5.2911496,6.0859324 -2.7646825,0 -5.2906328,-2.258833 -5.2906331,-6.0859324 3e-7,-1.9076357 0.7089875,-3.8477499 1.7363281,-5.2952839 1.0273405,-1.4475342 2.3644592,-2.3765991 3.554305,-2.3765991 z m 1.6055866,1.3709758 a 0.26460979,0.26460979 0 0 0 -0.1483114,0.486275 c 0.4896054,0.3317156 0.9658144,0.8131151 1.3787274,1.3962973 0.412913,0.5831821 0.763708,1.2669543 1.009757,1.9962605 A 0.26465559,0.26465559 0 1 0 12.814205,6.6696187 C 12.551559,5.891123 12.178,5.1637845 11.734167,4.5369327 11.290334,3.9100808 10.775118,3.3830289 10.220564,3.0073103 a 0.26460979,0.26460979 0 0 0 -0.148311,-0.048576 z m 2.788977,4.6875691 a 0.26460979,0.26460979 0 0 0 -0.26355,0.3141927 c 0.03308,0.190487 0.05886,0.382597 0.07597,0.5746419 a 0.26485386,0.26485386 0 1 0 0.527616,-0.047026 C 13.182812,8.2809794 13.154611,8.0735116 13.119095,7.8690289 A 0.26460979,0.26460979 0 0 0 12.86123,7.6463035 Z"></path></g></svg>