<svg height='100px' width='100px'  fill="#CC0000" xmlns:dc="http://purl.org/dc/elements/1.1/" xmlns:cc="http://creativecommons.org/ns#" xmlns:rdf="http://www.w3.org/1999/02/22-rdf-syntax-ns#" xmlns:svg="http://www.w3.org/2000/svg" xmlns="http://www.w3.org/2000/svg" xmlns:sodipodi="http://sodipodi.sourceforge.net/DTD/sodipodi-0.dtd" xmlns:inkscape="http://www.inkscape.org/namespaces/inkscape" viewBox="0 0 16.933333 16.933333" version="1.1" x="0px" y="0px"><g><path style="color:#000000;font-style:normal;font-variant:normal;font-weight:normal;font-stretch:normal;font-size:medium;line-height:normal;font-family:sans-serif;font-variant-ligatures:normal;font-variant-position:normal;font-variant-caps:normal;font-variant-numeric:normal;font-variant-alternates:normal;font-feature-settings:normal;text-indent:0;text-align:start;text-decoration:none;text-decoration-line:none;text-decoration-style:solid;text-decoration-color:#000000;letter-spacing:normal;word-spacing:normal;text-transform:none;writing-mode:lr-tb;direction:ltr;text-orientation:mixed;dominant-baseline:auto;baseline-shift:baseline;text-anchor:start;white-space:normal;shape-padding:0;clip-rule:nonzero;display:inline;overflow:visible;visibility:visible;opacity:1;isolation:auto;mix-blend-mode:normal;color-interpolation:sRGB;color-interpolation-filters:linearRGB;solid-color:#000000;solid-opacity:1;vector-effect:none;fill:#CC0000;fill-opacity:1;fill-rule:nonzero;stroke:none;stroke-width:0.52916664;stroke-linecap:round;stroke-linejoin:round;stroke-miterlimit:4;stroke-dasharray:none;stroke-dashoffset:0;stroke-opacity:1;color-rendering:auto;image-rendering:auto;shape-rendering:auto;text-rendering:auto;enable-background:accumulate" d="m 8.466667,1.0583331 c -1.456117,0 -2.897251,1.0644891 -3.986674,2.5994151 C 3.39057,5.1926752 2.645834,7.2218442 2.645834,9.2596692 2.645833,13.323488 5.4102439,15.875 8.466667,15.875 c 3.056421,0 5.820833,-2.551512 5.820832,-6.6153308 0,-2.037824 -0.744737,-4.066994 -1.834159,-5.601921 C 11.363916,2.1228222 9.9227841,1.0583331 8.466667,1.0583331 Z m 1.605728,1.9002091 a 0.26463328,0.26461902 0 0 1 0.148325,0.04858 c 0.554602,0.375731 1.069864,0.902802 1.513736,1.5296751 0.443873,0.6268738 0.817466,1.354238 1.080134,2.1327609 A 0.26467908,0.26466482 0 1 1 12.312767,6.8375123 C 12.066696,6.1081801 11.715869,5.4243841 11.30292,4.8411821 10.88997,4.2579791 10.41372,3.7765623 9.9240711,3.4448362 a 0.26463328,0.26461902 0 0 1 0.1483239,-0.486292 z m 2.789225,4.687732 a 0.26463328,0.26461902 0 0 1 0.257887,0.2227339 c 0.03552,0.204489 0.06372,0.411965 0.08217,0.6191051 a 0.26487739,0.2648631 0 1 1 -0.527662,0.04703 c -0.01711,-0.192051 -0.04289,-0.38417 -0.07597,-0.5746624 a 0.26463328,0.26461902 0 0 1 0.263574,-0.314204 z"></path></g></svg>