<svg height='100px' width='100px'  fill="white" xmlns="http://www.w3.org/2000/svg" xmlns:xlink="http://www.w3.org/1999/xlink" version="1.1" x="0px" y="0px" viewBox="0 0 100 100" enable-background="new 0 0 100 100" xml:space="preserve"><path d="M52.8,50l12.6-12.6c0.8-0.8,0.8-2,0-2.8c-0.8-0.8-2-0.8-2.8,0L50,47.2L37.4,34.6c-0.8-0.8-2-0.8-2.8,0c-0.8,0.8-0.8,2,0,2.8  L47.2,50L34.6,62.6c-0.8,0.8-0.8,2,0,2.8C35,65.8,35.5,66,36,66s1-0.2,1.4-0.6L50,52.8l12.6,12.6C63,65.8,63.5,66,64,66  s1-0.2,1.4-0.6c0.8-0.8,0.8-2,0-2.8L52.8,50z M52.8,50l12.6-12.6c0.8-0.8,0.8-2,0-2.8c-0.8-0.8-2-0.8-2.8,0L50,47.2L37.4,34.6  c-0.8-0.8-2-0.8-2.8,0c-0.8,0.8-0.8,2,0,2.8L47.2,50L34.6,62.6c-0.8,0.8-0.8,2,0,2.8C35,65.8,35.5,66,36,66s1-0.2,1.4-0.6L50,52.8  l12.6,12.6C63,65.8,63.5,66,64,66s1-0.2,1.4-0.6c0.8-0.8,0.8-2,0-2.8L52.8,50z M52.8,50l12.6-12.6c0.8-0.8,0.8-2,0-2.8  c-0.8-0.8-2-0.8-2.8,0L50,47.2L37.4,34.6c-0.8-0.8-2-0.8-2.8,0c-0.8,0.8-0.8,2,0,2.8L47.2,50L34.6,62.6c-0.8,0.8-0.8,2,0,2.8  C35,65.8,35.5,66,36,66s1-0.2,1.4-0.6L50,52.8l12.6,12.6C63,65.8,63.5,66,64,66s1-0.2,1.4-0.6c0.8-0.8,0.8-2,0-2.8L52.8,50z M50,12  c-21,0-38,17-38,38s17,38,38,38s38-17,38-38S71,12,50,12z M50,84c-18.8,0-34-15.2-34-34s15.2-34,34-34s34,15.2,34,34S68.8,84,50,84z   M65.4,34.6c-0.8-0.8-2-0.8-2.8,0L50,47.2L37.4,34.6c-0.8-0.8-2-0.8-2.8,0c-0.8,0.8-0.8,2,0,2.8L47.2,50L34.6,62.6  c-0.8,0.8-0.8,2,0,2.8C35,65.8,35.5,66,36,66s1-0.2,1.4-0.6L50,52.8l12.6,12.6C63,65.8,63.5,66,64,66s1-0.2,1.4-0.6  c0.8-0.8,0.8-2,0-2.8L52.8,50l12.6-12.6C66.2,36.6,66.2,35.4,65.4,34.6z M52.8,50l12.6-12.6c0.8-0.8,0.8-2,0-2.8  c-0.8-0.8-2-0.8-2.8,0L50,47.2L37.4,34.6c-0.8-0.8-2-0.8-2.8,0c-0.8,0.8-0.8,2,0,2.8L47.2,50L34.6,62.6c-0.8,0.8-0.8,2,0,2.8  C35,65.8,35.5,66,36,66s1-0.2,1.4-0.6L50,52.8l12.6,12.6C63,65.8,63.5,66,64,66s1-0.2,1.4-0.6c0.8-0.8,0.8-2,0-2.8L52.8,50z"></path></svg>