<svg width="16" height="16" viewBox="0 0 16 16" fill="none" xmlns="http://www.w3.org/2000/svg">
<path fill-rule="evenodd" clip-rule="evenodd" d="M15.0771 8.0769C15.0771 11.9429 11.9431 15.0769 8.07715 15.0769C4.21116 15.0769 1.07715 11.9429 1.07715 8.0769C1.07715 4.21091 4.21116 1.0769 8.07715 1.0769C11.9431 1.0769 15.0771 4.21091 15.0771 8.0769ZM5.90702 3.92135C6.46702 3.42499 7.19248 3.18317 8.09611 3.18317C9.03793 3.18317 9.77611 3.43772 10.3234 3.95954C10.8707 4.46863 11.1379 5.14317 11.1379 5.98317C11.1379 6.98863 10.6925 7.51045 9.82702 8.17226C9.1143 8.71954 8.82157 9.10136 8.82157 9.75045V10.1195H7.30702V9.68681C7.30702 8.88499 7.70157 8.33772 8.52884 7.66317C9.24157 7.10317 9.58521 6.68317 9.58521 6.00863C9.58521 5.10499 9.0252 4.51954 8.09611 4.51954C7.16702 4.51954 6.61975 5.06681 6.53066 5.9959L5.01611 5.89408C5.0543 5.06681 5.35975 4.40499 5.90702 3.92135ZM7.14157 12.0668C7.14157 11.545 7.54884 11.1377 8.04521 11.1377C8.5543 11.1377 8.9743 11.545 8.9743 12.0668C8.9743 12.5632 8.5543 12.9704 8.04521 12.9704C7.54884 12.9704 7.14157 12.5632 7.14157 12.0668Z" fill="#5C6A79"/>
</svg>
